# xmcd
#
# Track frame offsets:
#	150
#	18338
#	34479
#	54189
#	69079
#	87823
#	108553
#	127789
#	142291
#	160309
#	177109
#	196762
#	214266
#	233221
#	250238
#	279342
#
# Disc length: 3733 seconds
#
# Revision: 2
# Processed by: cddbd v1.5.2PL0 Copyright (c) Steve Scherf et al.
# Submitted via: audiograbber 1.83.01
#
DISCID=d90e9310
DTITLE=Keith, Toby - SC8976
DYEAR=2006
DGENRE=Karaoke
TTITLE0=Keith, Toby - As Good As I Once Was
TTITLE1=Keith, Toby - Beer For My Horses
TTITLE2=Keith, Toby - Little Too Late, A
TTITLE3=Keith, Toby - Big Blue Note
TTITLE4=Keith, Toby - I Love This Bar
TTITLE5=Keith, Toby - American Soldier
TTITLE6=Keith, Toby and Scotty Emerick - Weed With Willie
TTITLE7=Keith, Toby - Get Drunk And Be Somebody
TTITLE8=Keith, Toby - Rock You Baby
TTITLE9=Keith, Toby - Stays In Mexico
TTITLE10=Keith, Toby - Dream Walkin'
TTITLE11=Keith, Toby and Krystal - Mockingbird
TTITLE12=Keith, Toby - Whiskey Girl
TTITLE13=Keith, Toby - Honky Tonk U
TTITLE14=Keith, Toby - Country Comes To Town
TTITLE15=Data - Data Track
EXTD=
EXTT0=
EXTT1=
EXTT2=
EXTT3=
EXTT4=
EXTT5=
EXTT6=
EXTT7=
EXTT8=
EXTT9=
EXTT10=
EXTT11=
EXTT12=
EXTT13=
EXTT14=
EXTT15=
PLAYORDER=
